<svg xmlns="http://www.w3.org/2000/svg" width="448" height="216"><path fill="#FCFCFC" d="M0 0h448v216H0z"/><path fill="#E5DBB1" d="m267 89 1 36 6-12c6.407-6.79 13.57-12.227 23.086-13.371 5.167-.11 9.818.384 14.758 1.86 4.62 1.096 9.429 1.212 14.156 1.511v2l-4 2 9 9c6.822-2.729 10.68-6.905 14.75-12.937L348 100h3v15h11l-1 5h-9l1 36c5.046 1.15 5.046 1.15 9-1v4c-4.16 4.041-8.246 6.038-14 6.438-3.475-.08-4.001-.439-6.937-2.75-3.478-4.532-3.196-8.6-3.16-14.075 0-.817.002-1.634.004-2.476.005-2.608.018-5.216.03-7.824q.008-2.654.014-5.307.017-6.502.049-13.006h-5l1.473 3.45c1.688 4.523 2.03 8.565 1.964 13.362l-.025 2.387c-.308 10.688-3.86 19.144-11.412 26.801-8.381 7.12-17.775 9.75-28.684 9.48-8.667-1.255-15.704-5.932-21.316-12.48l-1 1c-2 .088-4.002.107-6.004.098l-3.682-.01-3.877-.025-3.888-.014q-4.774-.018-9.549-.049l1-4 1.938-.375L252 159c1.319-2.637 1.12-4.598 1.114-7.551v-3.519l-.016-3.813-.005-3.892q-.006-5.125-.024-10.249-.014-5.227-.02-10.456-.016-10.26-.049-20.52l-7-2c.574-1.86.574-1.86 2-4 3.082-1.266 3.082-1.266 6.813-2.25l3.707-1.016C262 89 262 89 267 89"/><path fill="#242322" d="M22 87q8.001-.112 16.003-.165 2.715-.022 5.43-.061c26.721-.377 26.721-.377 35.946 8.312 4.462 5.268 5.174 9.12 4.957 15.91-.619 5.535-2.16 9.18-6.465 12.79C74.346 126.241 71.25 128.16 67 129l2.75 4.313 1.922 3.007a714 714 0 0 1 5.219 8.36l1.551 2.498a797 797 0 0 1 3.03 4.919C86.314 159.867 91.7 168.44 101 171c5.987.665 11.407.418 17-2-.368 2.427-.584 3.66-2.52 5.244-5.337 2.633-9.861 3.463-15.793 3.381l-2.528-.028c-7.25-.27-12.433-2.019-18.159-6.597l-2.309-1.84C69.493 162.66 64.875 154.268 60 146l-3.5-5.812-1.344-2.27C54.151 136.25 53.08 134.621 52 133c-3.568-.736-3.568-.736-7-1q.174 4.25.375 8.5c.03.791.062 1.583.094 2.398.26 5.283 1.094 10.01 2.531 15.102l7 2v4H21l1-4 7-1q.07-12.66.104-25.321.014-5.88.047-11.757.032-5.67.039-11.34.005-2.167.021-4.333c.015-2.018.016-4.037.016-6.055l.014-3.486c.038-2.857.038-2.857-2.241-4.708a90 90 0 0 0-6-1z"/><path fill="#252525" d="m267 89-.013 2.427q-.06 11.344-.09 22.687-.015 5.831-.048 11.662-.032 5.632-.039 11.263-.004 2.145-.021 4.289a842 842 0 0 0-.016 6.024l-.014 3.459c.253 3.351 1.047 6.059 2.241 9.189h4l-1.062-1.75c-1.087-2.608-.869-3.644.062-6.25 2.262 2.149 4.07 4.396 5.875 6.938 4.12 5.528 8.54 8.87 15.125 11.062 9.146 1.225 17.267.706 25.371-3.969 6.927-5.352 12.21-13.319 13.629-22.031.977-11.192-.753-21.147-8-30-6.595-6.023-13.18-9.581-22.25-9.5l-2.275.02c-7.523.246-12.991 2.189-18.526 7.418-3.116 3.406-5.777 6.973-7.949 11.062l-2-1c.135-5.398 2.301-8.239 5.832-12.04 7.76-7.017 15.846-10.323 26.188-10.16 3.134.21 5.83.794 8.824 1.688 4.62 1.097 9.429 1.213 14.156 1.512v2l-4 2 9 9c6.822-2.729 10.68-6.905 14.75-12.937L348 100h3v15h11l-1 5h-9l1 36c5.046 1.15 5.046 1.15 9-1v4c-4.16 4.041-8.246 6.038-14 6.438-3.475-.08-4.001-.439-6.937-2.75-3.478-4.532-3.196-8.6-3.16-14.075 0-.817.002-1.634.004-2.476.005-2.608.018-5.216.03-7.824q.008-2.654.014-5.307.017-6.502.049-13.006h-5l1.473 3.45c1.688 4.523 2.03 8.565 1.964 13.362l-.025 2.387c-.308 10.688-3.86 19.144-11.412 26.801-8.381 7.12-17.775 9.75-28.684 9.48-8.667-1.255-15.704-5.932-21.316-12.48l-1 1c-2 .088-4.002.107-6.004.098l-3.682-.01-3.877-.025-3.888-.014q-4.774-.018-9.549-.049l1-4 1.938-.375L252 159c1.319-2.637 1.12-4.598 1.114-7.551v-3.519l-.016-3.813-.005-3.892q-.006-5.125-.024-10.249-.014-5.227-.02-10.456-.016-10.26-.049-20.52l-7-2c.574-1.86.574-1.86 2-4 3.082-1.266 3.082-1.266 6.813-2.25l3.707-1.016c3.001-.633 5.444-.795 8.48-.734"/><path fill="#313A24" d="M233.156 16.723c4.311 1.986 7.488 4.035 9.844 8.277 1.358 4.711 1.374 8.015-.375 12.625-1.957 3.015-4.382 4.712-7.312 6.75-3.378 2.417-3.378 2.417-5.118 6.066-.23 2.225-.321 4.328-.195 6.559l2.082-.973c6.845-2.41 15.294-2.211 21.98.66C261.015 60.68 266.775 66.998 272 73v2l2.023.73c3.714 1.584 7.113 3.561 10.602 5.582 5.6 3.203 11.214 6.148 17.14 8.715 2.12.923 4.178 1.921 6.235 2.973v2c-6.1.377-10.007-.495-15.375-3.5a903 903 0 0 0-4.223-2.227l-2.192-1.153c-3.604-1.826-7.311-3.4-11.022-4.995-7.455-3.227-14.62-6.876-21.732-10.8-5.817-3.164-11.46-5.602-18.206-5.638l-2.234-.05c-2.533.456-3.279 1.538-5.016 3.363-2.675-.261-4.601-.8-7-2-10.68-1.634-17.79 1.748-26.79 6.786-10.45 5.739-21.373 10.475-32.273 15.276a17300 17300 0 0 0-11.674 5.16 1087 1087 0 0 0-15.048 6.786C126.3 106 126.3 106 122 106c1-3 1-3 2.74-4.1l2.283-1.029 2.566-1.182 2.786-1.251c8.06-3.723 15.975-7.619 23.79-11.831 3.687-1.98 7.369-3.884 11.19-5.591 8.598-3.886 14.12-8.008 20.18-15.235 5.152-5.813 12.023-10.484 19.91-11.011l3.68.042 3.695.02C218 55 218 55 221 56l.75-3.687c1.507-5.864 4.236-8.803 9.375-11.876l2.07-1.128c2.157-1.564 2.857-2.84 3.805-5.309.5-3 .5-3 0-6-2.212-2.844-4.546-4.914-8-6-4.26.077-6.43.578-9.875 3.125-2.492 3.372-2.881 5.735-3.125 9.875l-3-1c-.488-3.982-.851-7.515 1.195-11.086 5.164-6.15 10.963-8.872 18.961-6.191"/><path fill="#222" d="m382 88 1 35 7-6c5.152-2.576 9.325-2.682 15-2 3.91 1.99 5.577 3.365 8 7 .24 2.752.373 5.412.414 8.168l.059 2.408c.06 2.537.106 5.074.152 7.612l.117 5.162q.142 6.324.258 12.65c2.892.826 4.887 1 8 1-1.002 2.732-1.584 3.795-4.238 5.105-2.878.933-5.243 1.26-8.262 1.333l-2.781.12c-3.915-.804-5.244-2.456-7.719-5.558-.483-2.887-.677-5.196-.637-8.074l-.031-2.319c-.03-2.432-.026-4.862-.02-7.294q-.011-3.664-.051-7.328a295 295 0 0 1-.01-4.55c.119-4.174.119-4.174-2.251-7.435-3.817-.509-5.502-.328-8.75 1.813-2.712 2.636-4.165 4.24-4.509 8.066l-.007 3.469-.007 3.771.023 3.944-.023 3.955.007 3.767.007 3.465c-.022 2.894-.022 2.894 2.259 4.75 2.069.643 2.069.643 4 1v3h-27v-3l5-2V98l-6-1c.082-1.828.082-1.828 1-4 2.95-1.484 2.95-1.484 6.688-2.75l3.699-1.297C376 88 376 88 382 88"/><path fill="#E3DBB0" d="M270 120c1.519 1.37 1.519 1.37 3 3-.305 2.086-.305 2.086-1 5-.166 3.208-.14 6.413-.125 9.625l-.012 2.602.004 2.5.004 2.268c.057 2.213.057 2.213 1.129 5.005l2 1-.5-1.5c-.72-3.603-.675-6.818-.5-10.5l2-3a76 76 0 0 0-1-5c1.811-1.811 4.613-1.382 7.063-1.562l3.347-.254L288 129q.971 2.155 1.938 4.313l1.09 2.425C292 138 292 138 293 141l-2.25.063c-3.178 1.083-3.478 1.682-5.062 4.5L284 149h16l1 5h2c1.585-1.787 1.585-1.787 3.125-4l1.633-2.25L309 146l2 1-1 2h10l-1.312-2.3-1.688-3.012-1.687-2.989C314 138 314 138 314 135c7.286-4.571 7.286-4.571 12-4 3 6.625 3 6.625 3 10h2l1-10h1c.717 12.534-1.246 22.104-9.625 31.762-7.158 6.745-14.946 9.102-24.574 8.877-8.841-.572-14.354-3.753-20.238-10.202-2.28-2.745-4.438-5.57-6.563-8.437.523 2.763 1.109 5.326 2 8h-5c-3.456-6.399-3.484-12.197-3.437-19.375l-.061-3.29c.004-7 1.049-12.216 4.498-18.335"/><path fill="#272726" d="m110.875 114.688 3.617-.051c5.403.56 8.532 2.342 12.258 6.238 4.016 5.578 4.587 9.391 4.25 16.125-1 1-1 1-3.684 1.114l-3.539-.016-3.818-.01-4.022-.025q-2.016-.008-4.033-.014A3769 3769 0 0 1 102 138q.432 2.393.883 4.781l.496 2.69c1.011 4.12 2.812 7.423 6.48 9.666 3.666 1.478 7.256 1.322 11.141.863 3.318-1.324 3.318-1.324 6-3l3-1c-.216 3.786-.918 4.92-3.687 7.625Q124.678 160.843 123 162l-2.562 1.813c-6.171 2.131-12.882 2.405-19.106.273C95.155 160.879 90.77 156.453 88 150c-.455-3.073-.416-6.147-.437-9.25l-.1-2.488c-.064-7.362 2.468-11.957 7.416-17.285l1.683-1.352 1.692-1.398c4.28-3.007 7.337-3.522 12.621-3.54"/><path fill="#232322" d="m25.626 88.757 3.3.013 3.603.005 3.784.037 3.748.002c10.052.05 10.052.05 14.939 1.186v1l-9 2v34l8 1v1l-2.312.375c-2.89.506-2.89.506-5.688 2.625a74 74 0 0 0-.312 8.625l-.01 2.371c.048 5.302.859 9.91 2.322 15.004l7 2v4H21l1-4 7-1q.07-12.66.104-25.321.014-5.88.047-11.757.032-5.67.039-11.34.005-2.167.021-4.333c.015-2.018.016-4.037.016-6.055l.014-3.486c.038-2.857.038-2.857-2.241-4.708a90 90 0 0 0-6-1c2-2 2-2 4.626-2.243"/><path fill="#20201F" d="m267 89-.013 2.427q-.06 11.344-.09 22.687-.015 5.831-.048 11.662-.032 5.632-.039 11.263-.004 2.145-.021 4.289a842 842 0 0 0-.016 6.024l-.014 3.459c.256 3.387.917 6.065 2.241 9.189 2.032.969 2.032.969 4 1v3h-26l1-4 1.938-.375L252 159c1.319-2.637 1.12-4.598 1.114-7.551v-3.519l-.016-3.813-.005-3.892q-.006-5.125-.024-10.249-.014-5.227-.02-10.456-.016-10.26-.049-20.52l-7-2c.574-1.86.574-1.86 2-4 3.082-1.266 3.082-1.266 6.813-2.25l3.707-1.016c3.001-.633 5.444-.795 8.48-.734"/><path fill="#242423" d="m160 114.563 2.078-.061c6.137.006 9.682 2.258 13.922 6.498.25 3 .25 3 0 6-2 2-2 2-5.5 2.25C167 129 167 129 165 127l-1-3.062c-.658-3.06-.658-3.06-3-3.938-2.915-.5-2.915-.5-6 0-5.312 5.455-5.303 10.156-5.317 17.391.1 5.806.619 10.889 4.317 15.609 4.548 3.41 8.52 3.609 14 3a95 95 0 0 0 5-4c2.313.25 2.313.25 4 1-2.427 5.502-6.955 8.112-12 11-5.818 1.94-12.126 2.13-17.871-.129-6.124-3.485-9.348-7.13-12.379-13.496-1.956-8.802-1.577-17.581 3.25-25.375 6.114-6.894 12.69-10.534 22-10.437"/><path fill="#212121" d="m229.375 114.688 3.898-.051c4.994.487 8.232 2.213 12.165 5.238C247 122 247 122 246.875 124.625 246 127 246 127 244 129c-3.625.125-3.625.125-7 0l-.629-1.715c-.963-2.292-1.918-4.264-3.371-6.285-3.433-1.49-3.433-1.49-7-1-3 2.19-4.67 4.566-6 8-.772 8.795-1.452 17.632 4 25 3.572 3.266 7.11 3.503 11.781 3.371 3.355-.561 5.58-2.311 8.219-4.371h2c-.082 2.787-.562 4.518-2.45 6.598-5.965 5.267-10.827 6.843-18.773 6.64-6.458-.554-10.28-2.345-14.652-7.175-6.182-7.462-5.909-14.58-5.359-23.96.624-5.605 3.132-9.192 7.207-12.896 1.957-1.54 3.899-2.916 6.027-4.207l1.785-1.14c3.223-1.251 6.146-1.162 9.59-1.172"/><path fill="#252524" d="m198 115 .06 3.916c.076 4.782.165 9.564.257 14.346q.059 3.108.105 6.216c.045 2.973.103 5.947.164 8.92l.035 2.82.06 2.608.04 2.301c.125 2.116.125 2.116 2.279 3.873 2.069.643 2.069.643 4 1v3h-27v-4l5-2v-33l-5-1c.043-1.793.043-1.793 1-4a57 57 0 0 1 7.313-3.312l2.052-.838c3.67-1.425 5.894-2.047 9.635-.85"/><path fill="#F8F8F8" d="M51.688 91.688c5.3.062 8.384.482 12.312 4.312 4.106 5.186 4.62 9.494 4.39 16.055-.7 5.276-2.575 9.187-6.39 12.882-3.878 2.06-7.401 2.177-11.75 2.126l-2.984-.028L45 127q-.037-7.236-.055-14.471-.008-2.464-.02-4.927-.017-3.533-.023-7.067l-.015-2.238c0-1.766.051-3.532.113-5.297 1.78-1.78 4.276-1.256 6.688-1.312"/><path fill="#EEE5BD" d="M302 119h3c2.108 2.888 3 4.385 3 8h-3v2l15 2-4 4h-2l1.313 2.555 1.687 3.32 1.688 3.305C320 147 320 147 320 149h-10l-1-2-6 8-3-1v-5h-16c2.535-6.338 2.535-6.338 5-9h3l-4-10-8-1 4-1v-2c4.031.553 8.015 1.18 12 2l1.207-1.969 1.606-2.531 1.582-2.531z"/><path fill="#566C3A" d="M311.844 101.488c4.62 1.097 9.429 1.213 14.156 1.512v2l-4 2q2.183 2.222 4.375 4.438l2.46 2.496c1.988 2.1 1.988 2.1 4.165 3.066v2l4 1h-4l1.473 3.45c1.688 4.523 2.03 8.565 1.964 13.362l-.025 2.387c-.308 10.688-3.86 19.144-11.412 26.801-8.381 7.12-17.775 9.75-28.684 9.48-8.667-1.255-15.704-5.932-21.316-12.48l-2 1-.437-2.687A243 243 0 0 0 271 153h3c1.395 1.793 1.395 1.793 2.813 4.188 4.133 6.486 8.745 10.37 16.187 12.812 9.146 1.225 17.267.706 25.371-3.969 6.927-5.352 12.21-13.319 13.629-22.031.977-11.192-.753-21.147-8-30-6.595-6.023-13.18-9.581-22.25-9.5l-2.275.02c-7.523.246-12.991 2.189-18.526 7.418-3.116 3.406-5.777 6.973-7.949 11.062l-2-1c.135-5.398 2.301-8.239 5.832-12.04 10.144-9.174 21.833-12.409 35.012-8.472"/><path fill="#5E902F" d="M278 44c2.492 6.407 4.77 12.533 2.098 19.277A82 82 0 0 1 277 69h-3l1-1q.553-3.493 1-7h-2v-3 9l-3 1c-5.565-2.976-9.671-7.473-14-12 4.983-6.557 12.076-14.672 21-12"/><path fill="#558131" d="M293 64c2.962 1.322 5.438 3.023 8 5l1.832 1.375c1.447 1.139 2.816 2.375 4.168 3.625v2c-6.592 3.646-12.472 5.242-20 4-3.595-1.274-6.913-2.745-10-5l-1-3 4-1-2-2c4.685-4.806 8.28-6.426 15-5"/><path fill="#57852B" d="M296 109c7.44-.51 13.28-.83 19.512 3.613C317 114 317 114 319 117v3h5l-5 11-5.875-.437-3.305-.247C307 130 307 130 305 129v-2h3c-2.775-8.075-2.775-8.075-7.957-14.531-2.075-.909-2.075-.909-5.043-1.469z"/><path fill="#608D32" d="M288 129q.971 2.155 1.938 4.313l1.09 2.425C292 138 292 138 293 141l-2.297.172c-2.884.595-2.884.595-4.469 3.156l-1.484 2.922-1.516 2.89c-1.146 2.657-1.797 5.01-2.234 7.86-4.15-3.578-6.594-7.6-7.254-13.125-.105-3.816.104-5.65 2.254-8.875a76 76 0 0 0-1-5c2.793-2.793 9.224-2.114 13-2"/><path fill="#1F1F1E" d="M107 115c11.993-.576 11.993-.576 17 3 6.272 6.557 7 9.78 7 19h-30v-3l3.246-.184 4.192-.254 2.142-.119c3.507.08 3.507.08 6.42-1.443.073-2.186.084-4.375.063-6.562l-.028-3.63L117 119l-3-1v-1l-7-1z"/><path fill="#57862F" d="m309 146 2 1-1 3c2.042-.115 4.084-.243 6.125-.375l3.445-.21c3.384-.41 6.246-1.225 9.43-2.415-1.468 5.872-4.734 10.734-9 15-2.548.283-5.095.448-7.652.621-2.533.174-2.533.174-4.348 2.379a181 181 0 0 1-3.062-3.25l-1.723-1.828C302 158 302 158 302.125 156.032c1.032-2.396 2.33-4.23 3.938-6.282l1.66-2.14z"/><path fill="#56872D" d="M287.598 149.902q2.232.01 4.464.036l2.3.013q2.818.02 5.638.049v13c-12.177.492-12.177.492-15.934-1.754C282 159 282 159 281.696 156.895c1.417-6.87 1.417-6.87 5.902-6.993"/><path fill="#4E7D2C" d="M290 112c1.418.06 2.834.15 4.25.25l2.39.14c3.039.785 4.328 2.28 6.36 4.61-.9 1.82-1.82 3.632-2.75 5.438l-1.547 3.058C297 128 297 128 295.125 128.97c-2.835.041-4.782-.78-7.375-1.906l-2.703-1.153L283 125c.634-3.498 2.052-5.84 4.063-8.75.547-.8 1.095-1.598 1.66-2.422z"/><path fill="#F0F0F0" d="M110.438 117.563c3.334.569 4.444 1.865 6.562 4.437 1.114 2.229 1.165 3.53 1.188 6l.042 2.125C118 132 118 132 116 134c-3.258.195-3.258.195-7.125.125l-3.883-.055L102 134c-.273-5.371-.404-8.587 3-13l1.375-1.812C108 118 108 118 110.438 117.562"/><path fill="#5E7148" d="M270 120c1.519 1.37 1.519 1.37 3 3-.305 2.094-.305 2.094-1 5-.166 3.166-.14 6.33-.125 9.5l-.012 2.55c.007 4.141.224 7.894 1.137 11.95l-.562 2c-.613 2.8.366 4.467 1.562 7h-5c-3.456-6.399-3.484-12.197-3.437-19.375l-.061-3.29c.004-7 1.049-12.216 4.498-18.335"/><path fill="#588B2D" d="M326 131c.704 1.555 1.387 3.12 2.063 4.688l1.16 2.636c.88 3.031.745 4.695-.223 7.676-2.875 2.156-5.48 2.471-9 2-1.8-2.082-1.8-2.082-3.312-4.812l-1.551-2.708C314 138 314 138 314 135c6.83-4.286 6.83-4.286 12-4"/><path fill="#242423" d="M195 93c1.938 1.125 1.938 1.125 3 3 .5 3.438.5 3.438 0 7-2.582 2.961-4.189 3.868-8.062 4.5-2.938-.5-2.938-.5-5.313-2.062-2.264-3.397-2.268-5.439-1.625-9.438 3.686-4.468 6.583-4.505 12-3"/><path fill="#D7D5A4" d="M332 131h1c.727 12.7-1.35 22.008-9.715 31.828-4.221 4.012-9.177 7.042-15.086 7.29-.726-.04-1.451-.078-2.199-.118l3-1-.625-1.812C308 165 308 165 310 162c2.172-.23 2.172-.23 4.75-.187 3.175-.216 4.74-.373 7.172-2.473 2.648-3.507 4.76-7.123 6.078-11.34l-2.074.992c-3.415 1.176-6.136 1.206-9.738 1.133l-3.52-.055L310 150v-1l3.14-.367 4.11-.508 2.066-.238c5.144-.608 5.144-.608 9.684-2.887 2.002-2.971 2.346-5.721 2.625-9.25l.227-2.703z"/><path fill="#558426" d="M273 47c-.614 3.928-1.87 7.38-3.3 11.063-.824 2.28-1.326 4.544-1.7 6.937-3.215-1.408-5.322-3.103-7.75-5.625l-1.86-1.914L257 56c8.943-11.218 8.943-11.218 16-9"/><path fill="#E8EEE0" d="M256 54c2.295 1.147 3.203 2.33 4.813 4.313 3.66 4.336 6.558 7.28 12.187 8.687l-1-9h2v3h2v7l4-4 1 3-2 2 7 1v1l-10 1c2.516 2.606 5.051 4.894 8 7l-2 2c-6.14-3.261-10.846-6.476-15.195-11.918-2.692-3.105-5.869-5.577-9.082-8.125C256 59 256 59 255.746 56.262z"/><path fill="#416131" d="M325 111q2.007 1.426 4 2.875l2.25 1.617L333 117v2l4 1h-4l1.48 3.43c1.737 4.642 1.936 8.782 1.832 13.695l.01 2.34c-.042 4.555-.604 8.25-2.322 12.535h-3l.5-3.187c1.518-12.59.87-22.641-6.61-33.086L324 114z"/><path fill="#518027" d="M294 66c4.109.525 6.255 1.668 9.313 4.438l2.113 1.87C307 74 307 74 307 76c-6.317 3.446-11.904 3.315-19 3v-1l2.375-.25c2.772-.478 2.772-.478 3.938-2.812L295 73l-6-2 3-1c1.209-2 1.209-2 2-4"/><path fill="#47602D" d="m330 150 1 2h2c-.957 6.806-5.071 11.48-10.184 15.879-4.93 3.546-8.756 4.9-14.816 5.121l1-3a83 83 0 0 1 5.563-2.5c6.976-3.305 10.644-7.88 14.437-14.5z"/><path fill="#658E3F" d="m288.5 63.813 2.406-.043C293 64 293 64 295 66l-3 5 5 2c-4.25 1.417-6.719.193-11-1v-2h-8c3.433-4.463 4.851-6.142 10.5-6.187"/><path fill="#F5F5F2" d="M333 120h5v35h-1l-1-5-2 1 .488-1.95c.667-3.974.696-7.839.7-11.863l.037-2.33c.013-5.277-.762-9.785-2.225-14.857"/><path fill="#363931" d="M289 85c4.468 1.399 8.638 3.136 12.875 5.125l3.492 1.633L308 93v2c-8.072.95-13.923-2.375-21-6v-2h2z"/><path fill="#363636" d="M22 87q8.276-.074 16.553-.11 2.817-.015 5.634-.04c2.695-.025 5.39-.036 8.086-.045l2.554-.032c2.06 0 4.118.104 6.173.227l2 2-42 1z"/><path fill="#4D603D" d="M325 111q2.007 1.426 4 2.875l2.25 1.617L333 117v2l4 1h-4l1.063 2.25c.992 2.912 1.091 3.96-.063 6.75l-2 2-.48-1.687c-1.567-5.124-3.507-9.226-6.63-13.586L324 114z"/><path fill="#588434" d="M276 44h2c2.666 6.854 4.413 12.76 2 20l-1 2h-1l-.148-1.836c-.49-5.49-1.306-10.76-2.547-16.133C275 46 275 46 276 44"/><path fill="#496028" d="M315 103h11v2l-4 2 3 3-1 3-12-7 3-1z"/><path fill="#39422E" d="m168 82-1 4 2 1-10 4v-2l-4-2q2.685-1.256 5.375-2.5l3.023-1.406C166 82 166 82 168 82"/><path fill="#426426" d="M299 69c2.95 1.37 5.525 2.878 8 5v2c-6.317 3.446-11.904 3.315-19 3v-1c4.326-1.583 8.429-2.451 13-3-.506-2.169-1-4-2-6"/><path fill="#E4E6E1" d="M267 143h1l.75 3.375c1.255 5.074 3.22 9.818 5.25 14.625-2.375.188-2.375.188-5 0-2.454-3.68-2.228-6.444-2.125-10.687l.027-2.127c.024-1.73.06-3.458.098-5.186"/><path fill="#39531B" d="M295 101q3.593-.08 7.188-.125l2.04-.05c4.06-.04 7.122.375 10.772 2.175v2l-3.312-.437c-4.477-.578-8.962-.893-13.465-1.184L296 103z"/><path fill="#F0E7C3" d="M271 132h1v6h2l1 13-3-1c-1.206-3.619-1.108-6.925-1.062-10.687l.013-2.127q.02-2.594.049-5.186"/><path fill="#323331" d="M248 160h4v2l19 1v-2h2v3h-26z"/><path fill="#558528" d="M272 53c1.563 1.75 1.563 1.75 3 4-.312 2.25-.312 2.25-1 4v-3 9l-2 1c-1.861-3.123-2.185-5.038-1.687-8.625l.3-2.352C271 55 271 55 272 53"/><path fill="#6D9D41" d="M273 48c1.394 4.181-.291 6.035-2 10-.254 2.793-.254 2.793 0 5h1v5l-5-2c2.89-12.67 2.89-12.67 6-18"/><path fill="#516A39" d="m330 150 1 2h2c-.35 3.155-.865 4.823-2.812 7.375L328 161c-2.137-.398-2.137-.398-4-1l1.059-1.426 1.378-1.887 1.372-1.863c1.364-1.92 1.364-1.92 2.191-4.824"/><path fill="#292929" d="M118 169c-.187 1.813-.187 1.813-1 4-4.179 3-4.179 3-7 3v-3h-6v-1l2.117-.402 2.758-.536 2.742-.527c2.35-.528 3.985-1.535 6.383-1.535"/><path fill="#E6E4C1" d="M330 146c.816 2.352 1.117 3.626.363 6.035-3.503 6.76-3.503 6.76-7.363 8.965.578-4.062 1.891-6.848 4.063-10.312.547-.884 1.095-1.767 1.66-2.676z"/><path fill="#D6DCCF" d="M336 132h1c.752 7.691 1.137 15.272 1 23h-1l-1-5-2 1 .465-2.043c.62-3.426.87-6.796 1.098-10.27l.253-3.8z"/><path fill="#3C5926" d="M334 140h1q.039 2.156.063 4.313l.035 2.425C335 149 335 149 334 152h-3c.857-8.571.857-8.571 3-12"/><path fill="#3C5223" d="M325 111c4.228 3.083 4.228 3.083 6 5 .375 2.813.375 2.813 0 5l-2 1a265 265 0 0 1-2.562-3.812l-1.442-2.145C324 114 324 114 325 111"/><path fill="#3E5927" d="M272 152c2.969 2.545 4.362 5.49 6 9-2.375-.25-2.375-.25-5-1-1.375-1.812-1.375-1.812-2-4 .375-2.25.375-2.25 1-4"/><path fill="#465F2A" d="M274 114h2c-.615 5.538-.615 5.538-2.562 7.875L272 123c-.687-2.25-.687-2.25-1-5 1.313-2.312 1.313-2.312 3-4"/><path fill="#2F3128" d="M291 87c1.945.777 1.945.777 4.125 1.938l2.195 1.152L299 91c-1.797 1.086-1.797 1.086-4 2-3.25-1.375-3.25-1.375-6-3v-2z"/><path fill="#292A2A" d="M146 118c0 3 0 3-1.531 4.824l-1.969 1.864-1.969 1.886L139 128l-2-1a975 975 0 0 1 3.375-3.937l1.898-2.215C144 119 144 119 146 118"/><path fill="#D8E6CC" d="m279 64 2 3-2 2 7 1v1c-4.316.762-7.744 1.16-12 0z"/><path fill="#356517" d="m301 77-1 2h-12v-1c4.76-1.974 7.965-2.007 13-1"/><path fill="#38442B" d="m187 66 1 3-7 7-2-1zm-10 10 2 1Z"/><path fill="#DFDBAB" d="M275 149c1.777 2.666 2.875 5.028 4 8h-4l-2-6h2z"/><path fill="#292928" d="m222 115 9 1-1 3c-3.716.2-4.772.152-8-2z"/><path fill="#29321E" d="m154 88 5 1v2c-2.647 1.46-3.894 2-7 2z"/><path fill="#858D7B" d="M317 103h9v2c-2.812.688-2.812.688-6 1z"/><path fill="#BABF84" d="M310 162h9v1l-3.375.313L312 164l-2 3h-2z"/><path fill="#3B3B3B" d="M22 160h6c-1.25 2-1.25 2-3 4h-4z"/><path fill="#303B26" d="M129 102v2c-2.647 1.46-3.894 2-7 2l1-3c2-1 2-1 6-1"/><path fill="#26281E" d="m281 84 8 1v2l-3 1c-2.687-1.375-2.687-1.375-5-3z"/><path fill="#4A7325" d="m281 66 2 1v1l5 1v1h-10z"/><path fill="#303031" d="m130 152-1 5-5-1c3.75-4 3.75-4 6-4"/><path fill="#5E893D" d="M273 43c2.188.313 2.188.313 4 1l-2 3-5-1c1.25-1.562 1.25-1.562 3-3"/></svg>